<svg xmlns="http://www.w3.org/2000/svg" viewBox="0 0 250.51 151.44"><defs><style>.cls-1,.cls-2{fill:#efeded;}.cls-2{font-size:22.77px;font-family:JetBrainsMono-Medium, JetBrains Mono;font-weight:500;}</style></defs><title>Asset 4</title><g id="Layer_2" data-name="Layer 2"><g id="Livello_1" data-name="Livello 1"><path class="cls-1" d="M46.29,50l7.79,1.75C50.33,66.75,39.52,72,27.56,72,11.13,72,0,61.48,0,45.76,0,29.83,11.13,19.28,27.56,19.28c12.79,0,23.09,6.08,26.52,20.28L46.31,41.3a8.72,8.72,0,0,1-9.46-3.81c-1.78-3.07-4.66-4.21-9.29-4.21-8,0-11.75,3.95-11.75,12.48C15.81,54.07,19.55,58,27.56,58c4.58,0,7.43-1.15,9.24-4.24A8.75,8.75,0,0,1,46.29,50"/><path class="cls-1" d="M134.51,50.52h-30.1c.93,6.9,4.26,9.74,10.92,9.74,3.17,0,5.3-.61,7.06-2.32A8.91,8.91,0,0,1,131.46,56l7.27,2.51C135.19,67.26,127.39,72,114.91,72,98.79,72,88,61.68,88,46.06c0-16,10.61-26.78,26.42-26.78,15.29,0,25.48,10.34,25.48,26v0a5.29,5.29,0,0,1-5.36,5.22m-30.1-10h19.86c-.1-7.41-3.22-9.94-9.57-9.94s-9.46,2.84-10.29,9.94"/><path class="cls-1" d="M201.54,20.29V71H185.73V59.65c-2.92,8-8.84,12.38-17.16,12.38-14.87,0-23.09-10.55-23.09-26.28,0-15.92,7.8-26.47,22.05-26.47,8.84,0,15.18,4.46,18.2,12.78V28.92a8.74,8.74,0,0,1,8.84-8.63ZM186.25,45.75c0-8.52-4.06-12.47-12.69-12.47-8.32,0-12.27,3.95-12.27,12.47,0,8.32,4,12.28,12.27,12.28,8.63,0,12.69-4,12.69-12.28"/><path class="cls-1" d="M214,71V37.54a17.46,17.46,0,0,1,17.68-17.25h18.82v5.37a8.74,8.74,0,0,1-8.84,8.63H229.82V71Z"/><path class="cls-1" d="M212.14,131.83,206,145.61A8.9,8.9,0,0,1,198,150.4H185L202.37,125,185.1,99.67h13.26a8.64,8.64,0,0,1,7.91,4.77c1.56,3.39,5.87,13.5,5.87,13.5s5-10.15,6.58-13.58a8.62,8.62,0,0,1,7.87-4.69H239.7L222.33,125,239.7,150.4H226.57a8.88,8.88,0,0,1-7.85-4.66Z"/><path class="cls-1" d="M91.1,137.44c-8.64,0-12.69-3.95-12.69-12.27,0-8.52,4-12.48,12.69-12.48,8.31,0,12.27,4,12.27,12.48,0,8.32-4,12.27-12.27,12.27M78.93,0H72a8.74,8.74,0,0,0-8.84,8.63v141.8H78.93V139.07c2.91,8,8.84,12.37,17.16,12.37,14.87,0,23.09-10.55,23.09-26.27,0-15.93-7.81-26.48-22.05-26.48-8.84,0-15.19,4.46-18.2,12.78Z"/><path class="cls-1" d="M182.08,125.17c0,16.33-12.9,26.27-28.29,26.27s-28.29-9.94-28.29-26.27,12.9-26.48,28.29-26.48,28.29,10,28.29,26.48m-15.81,0c0-8.52-4-12.48-12.48-12.48s-12.48,4-12.48,12.48c0,8.32,3.95,12.27,12.48,12.27s12.48-3.95,12.48-12.27"/><text class="cls-2" transform="translate(127.16 110.58)"> </text><path class="cls-1" d="M27.41,119.08H16.88l-2,5.68H8.45l9.46-26.14h8.54l9.38,26.14H29.4Zm-1.8-5.19-2-5.67-1.46-4.67-1.49,4.67-2,5.67Z"/><rect class="cls-1" x="39.27" y="98.62" width="6.2" height="26.14"/><rect class="cls-1" x="8.46" y="142.06" width="37.01" height="8.39"/></g></g></svg>